<svg width="1440" height="593" viewBox="0 0 1440 593" fill="none" xmlns="http://www.w3.org/2000/svg">
<path opacity="0.5" d="M1451 188.052V624.45C1386 677.94 1336.51 740.163 1302.5 811.12C1270 879.352 1254.89 950.312 1257.16 1024H1207.28V976.515C1207.28 957.952 1209.16 942.12 1212.93 929.02L1222.02 893.818L1232.22 859.433L1265.08 779.198C1277.94 749.714 1291.54 724.059 1305.9 702.233C1313.45 690.222 1327.06 674.667 1346.7 655.565L1388.65 610.533L1401.13 583.515L1405.66 554.852C1407.17 519.919 1404.52 473.796 1397.72 416.485L1363.71 197.065C1350.86 109.187 1343.31 35.4985 1341.04 -24H1439.67C1438.91 19.1217 1439.29 54.6 1440.8 82.4349C1442.31 121.19 1445.71 156.396 1451 188.052ZM1451 707.148V921.652C1446.46 936.394 1443.06 953.316 1440.8 972.417L1437.4 1024H1342.17L1341.04 933.935C1341.04 897.912 1343.69 868.166 1348.98 844.698C1353.52 823.409 1367.49 799.665 1390.91 773.465L1451 707.148ZM1149.47 1024H1096.19L1101.85 936.387L1115.46 848.785C1125.28 800.207 1134.35 762.545 1142.66 735.8C1155.51 694.858 1171.76 658.831 1191.42 627.72L1227.69 564.683L1250.36 498.365L1258.29 445.965C1259.05 426.312 1255.65 409.39 1248.09 395.2L1200.47 295.315L1152.88 195.43C1134.73 152.853 1121.5 116.827 1113.19 87.35C1101.86 47.505 1096.19 10.3884 1096.19 -24H1149.47C1150.22 35.4985 1161.94 94.9934 1184.61 154.485C1207.28 212.348 1239.77 267.48 1282.09 319.88L1252.63 204.433L1225.41 88.9849L1212.93 33.3151L1206.16 -24H1257.18L1260.57 23.4849L1268.51 70.9802L1304.78 241.28L1339.93 412.398C1349.74 469.164 1350.5 523.748 1342.19 576.148L1333.12 610.522C1327.83 623.084 1320.27 633.459 1310.46 641.648L1283.25 662.115C1272.67 670.304 1264.73 677.943 1259.44 685.035C1243.57 704.143 1229.6 731.437 1217.51 766.915L1182.35 851.248C1168.75 875.806 1159.68 904.189 1155.14 936.398C1151.37 958.231 1149.48 987.432 1149.48 1024H1149.47ZM1056.53 1024H936.33C915.92 954.678 907.61 888.906 911.402 826.683C915.175 792.294 923.861 763.638 937.462 740.715L980.557 662.115C994.148 632.638 1002.46 605.076 1005.48 579.428C1008.5 560.319 1006.62 541.759 999.826 523.748C993.016 505.184 981.674 488.262 965.8 472.983C943.135 451.149 915.18 429.043 881.932 406.665L868.322 432.865L855.843 460.7C833.179 508.188 809.373 549.944 784.425 585.967C754.196 629.634 720.194 667.572 682.42 699.78C668.055 715.605 655.581 734.162 644.999 755.45C637.444 771.827 630.266 792.022 623.466 816.035C606.847 876.078 598.537 945.4 598.537 1024H504.455L508.982 895.452C512.754 848.516 520.686 805.67 532.778 766.915C549.416 715.605 572.845 675.757 603.065 647.37L637.076 621.17L671.087 594.97C695.271 574.233 714.163 550.217 727.764 522.92C740.61 497.272 747.792 470.254 749.311 441.867C750.82 405.844 746.66 362.178 736.832 310.867L709.626 181.513C696.78 104.003 692.253 35.4985 696.045 -24H842.276C836.231 61.1535 845.299 138.391 869.483 207.713C892.911 272.116 934.096 328.883 993.035 378.013L1065.59 432.865C1095.06 455.243 1116.22 475.438 1129.07 493.45C1154.77 527.838 1159.31 570.688 1142.68 621.998C1132.85 654.199 1113.96 692.133 1086 735.8C1074.66 753.812 1065.97 774.283 1059.93 797.213C1054.64 814.68 1050.86 835.964 1048.59 861.068C1044.81 911.833 1047.45 966.143 1056.52 1024H1056.53ZM842.276 1024H696.03V913.467C699.048 871.988 707.358 835.692 720.958 804.58C762.525 716.15 811.651 636.457 868.336 565.5L894.411 533.567L925.013 504.098C937.104 536.844 931.813 577.234 909.139 625.267C854.726 743.712 832.429 876.623 842.247 1024H842.276ZM417.163 1024H260.73L264.126 963.415L270.931 902.82L308.337 666.213L343.481 429.595C354.818 345.539 345.749 269.395 316.274 201.163C299.646 222.451 285.286 248.651 273.194 279.763L243.724 361.643C239.188 373.653 236.542 388.391 235.787 405.858L236.919 450.063L228.982 566.328L202.908 676.043C188.553 726.794 179.489 763.362 175.716 785.748C171.943 804.849 170.434 827.227 171.189 852.883L174.584 920.018L180.243 972.417C182.516 992.071 185.921 1009.27 190.458 1024H83.8823V827.5L82.7505 764.452C42.7029 810.306 15.1194 861.343 0 917.565V703.878C56.6857 630.728 92.5835 551.579 107.693 466.433C119.785 402.574 120.162 320.97 108.825 221.62L92.9511 98.8256C87.6694 50.7853 84.6465 9.84341 83.8823 -24H190.444L210.845 94.7174L226.719 213.435C238.81 196.513 247.502 175.501 252.793 150.398L261.862 84.8977L262.994 30.8523L260.73 -24H418.309C419.054 -3.25659 422.449 21.0326 428.495 48.8674L445.501 120.1L469.297 236.365C475.352 279.487 476.112 318.514 471.575 353.448C466.284 383.469 456.46 417.309 442.105 454.967L399.025 553.217C379.378 600.161 368.041 650.922 365.014 705.502C364.259 731.702 367.282 760.907 374.082 793.115L396.761 879.083L406.962 853.7L472.707 658.018C495.381 585.971 512.764 520.198 524.856 460.7C530.902 432.865 533.924 401.209 533.924 365.73L529.383 269.933L513.523 123.38C506.723 63.8818 503.7 14.755 504.455 -24H598.537C597.783 38.7682 607.229 107.545 626.876 182.33L650.672 274.03C659.745 309.509 664.282 340.075 664.282 365.73C664.282 392.475 659.373 418.675 649.555 444.33C640.481 469.978 626.876 493.991 608.738 516.37C564.144 581.87 526.36 653.378 495.386 730.895C468.175 798.575 445.123 873.35 426.231 955.22C419.431 981.42 416.408 1004.35 417.163 1024ZM0 623.633V183.148L11.3323 228.998L21.5328 275.665L55.5443 422.217L58.9541 438.598L62.3495 463.152C69.9043 519.926 49.1212 573.419 0 623.633ZM937.491 -24H1056.5C1052.73 26.7651 1053.49 68.5209 1058.78 101.267L1071.26 148.752L1089.4 196.248L1141.53 339.53L1190.28 482.802L1198.21 510.648L1200.47 538.483L1166.47 471.348C1152.86 446.783 1138.13 425.222 1122.26 406.665L1062.19 337.078L999.826 268.298C988.489 254.653 979.42 238.548 972.62 219.985C967.328 206.885 962.797 189.691 959.024 168.402C946.932 106.179 939.75 42.045 937.477 -24" fill="url(#paint0_linear_256_1864)"/>
<defs>
<linearGradient id="paint0_linear_256_1864" x1="725.5" y1="-24" x2="688" y2="688" gradientUnits="userSpaceOnUse">
<stop stop-color="#041C58"/>
<stop offset="1" stop-color="#041C58" stop-opacity="0"/>
</linearGradient>
</defs>
</svg>
