<svg width="1440" height="1024" viewBox="0 0 1440 1024" fill="none" xmlns="http://www.w3.org/2000/svg">
<g opacity="0.4">
<circle cx="31" cy="44" r="2" fill="#3B71F7"/>
<circle cx="184" cy="44" r="2" fill="#3B71F7"/>
<circle cx="337" cy="44" r="2" fill="#3B71F7"/>
<circle cx="31" cy="148" r="2" fill="#3B71F7"/>
<circle cx="184" cy="148" r="2" fill="#3B71F7"/>
<circle cx="337" cy="148" r="2" fill="#3B71F7"/>
<circle cx="31" cy="252" r="2" fill="#3B71F7"/>
<circle cx="184" cy="252" r="2" fill="#3B71F7"/>
<circle cx="337" cy="252" r="2" fill="#3B71F7"/>
<circle cx="31" cy="356" r="2" fill="#3B71F7"/>
<circle cx="184" cy="356" r="2" fill="#3B71F7"/>
<circle cx="337" cy="356" r="2" fill="#3B71F7"/>
<circle cx="31" cy="460" r="2" fill="#3B71F7"/>
<circle cx="184" cy="460" r="2" fill="#3B71F7"/>
<circle cx="337" cy="460" r="2" fill="#3B71F7"/>
<circle cx="31" cy="564" r="2" fill="#3B71F7"/>
<circle cx="184" cy="564" r="2" fill="#3B71F7"/>
<circle cx="337" cy="564" r="2" fill="#3B71F7"/>
<circle cx="31" cy="668" r="2" fill="#3B71F7"/>
<circle cx="184" cy="668" r="2" fill="#3B71F7"/>
<circle cx="337" cy="668" r="2" fill="#3B71F7"/>
<circle cx="31" cy="772" r="2" fill="#3B71F7"/>
<circle cx="184" cy="772" r="2" fill="#3B71F7"/>
<circle cx="337" cy="772" r="2" fill="#3B71F7"/>
<circle cx="31" cy="876" r="2" fill="#3B71F7"/>
<circle cx="184" cy="876" r="2" fill="#3B71F7"/>
<circle cx="337" cy="876" r="2" fill="#3B71F7"/>
<circle cx="31" cy="980" r="2" fill="#3B71F7"/>
<circle cx="184" cy="980" r="2" fill="#3B71F7"/>
<circle cx="337" cy="980" r="2" fill="#3B71F7"/>
<circle cx="490" cy="44" r="2" fill="#3B71F7"/>
<circle cx="643" cy="44" r="2" fill="#3B71F7"/>
<circle cx="796" cy="44" r="2" fill="#3B71F7"/>
<circle cx="949" cy="44" r="2" fill="#3B71F7"/>
<circle cx="490" cy="148" r="2" fill="#3B71F7"/>
<circle cx="643" cy="148" r="2" fill="#3B71F7"/>
<circle cx="796" cy="148" r="2" fill="#3B71F7"/>
<circle cx="949" cy="148" r="2" fill="#3B71F7"/>
<circle cx="490" cy="252" r="2" fill="#3B71F7"/>
<circle cx="643" cy="252" r="2" fill="#3B71F7"/>
<circle cx="796" cy="252" r="2" fill="#3B71F7"/>
<circle cx="949" cy="252" r="2" fill="#3B71F7"/>
<circle cx="490" cy="356" r="2" fill="#3B71F7"/>
<circle cx="643" cy="356" r="2" fill="#3B71F7"/>
<circle cx="796" cy="356" r="2" fill="#3B71F7"/>
<circle cx="949" cy="356" r="2" fill="#3B71F7"/>
<circle cx="490" cy="460" r="2" fill="#3B71F7"/>
<circle cx="643" cy="460" r="2" fill="#3B71F7"/>
<circle cx="796" cy="460" r="2" fill="#3B71F7"/>
<circle cx="949" cy="460" r="2" fill="#3B71F7"/>
<circle cx="490" cy="564" r="2" fill="#3B71F7"/>
<circle cx="643" cy="564" r="2" fill="#3B71F7"/>
<circle cx="796" cy="564" r="2" fill="#3B71F7"/>
<circle cx="949" cy="564" r="2" fill="#3B71F7"/>
<circle cx="490" cy="668" r="2" fill="#3B71F7"/>
<circle cx="643" cy="668" r="2" fill="#3B71F7"/>
<circle cx="796" cy="668" r="2" fill="#3B71F7"/>
<circle cx="949" cy="668" r="2" fill="#3B71F7"/>
<circle cx="490" cy="772" r="2" fill="#3B71F7"/>
<circle cx="643" cy="772" r="2" fill="#3B71F7"/>
<circle cx="796" cy="772" r="2" fill="#3B71F7"/>
<circle cx="949" cy="772" r="2" fill="#3B71F7"/>
<circle cx="490" cy="876" r="2" fill="#3B71F7"/>
<circle cx="643" cy="876" r="2" fill="#3B71F7"/>
<circle cx="796" cy="876" r="2" fill="#3B71F7"/>
<circle cx="949" cy="876" r="2" fill="#3B71F7"/>
<circle cx="490" cy="980" r="2" fill="#3B71F7"/>
<circle cx="643" cy="980" r="2" fill="#3B71F7"/>
<circle cx="796" cy="980" r="2" fill="#3B71F7"/>
<circle cx="949" cy="980" r="2" fill="#3B71F7"/>
<circle cx="1102" cy="44" r="2" fill="#3B71F7"/>
<circle cx="1255" cy="44" r="2" fill="#3B71F7"/>
<circle cx="1408" cy="44" r="2" fill="#3B71F7"/>
<circle cx="1102" cy="148" r="2" fill="#3B71F7"/>
<circle cx="1255" cy="148" r="2" fill="#3B71F7"/>
<circle cx="1408" cy="148" r="2" fill="#3B71F7"/>
<circle cx="1102" cy="252" r="2" fill="#3B71F7"/>
<circle cx="1255" cy="252" r="2" fill="#3B71F7"/>
<circle cx="1408" cy="252" r="2" fill="#3B71F7"/>
<circle cx="1102" cy="356" r="2" fill="#3B71F7"/>
<circle cx="1255" cy="356" r="2" fill="#3B71F7"/>
<circle cx="1408" cy="356" r="2" fill="#3B71F7"/>
<circle cx="1102" cy="460" r="2" fill="#3B71F7"/>
<circle cx="1255" cy="460" r="2" fill="#3B71F7"/>
<circle cx="1408" cy="460" r="2" fill="#3B71F7"/>
<circle cx="1102" cy="564" r="2" fill="#3B71F7"/>
<circle cx="1255" cy="564" r="2" fill="#3B71F7"/>
<circle cx="1408" cy="564" r="2" fill="#3B71F7"/>
<circle cx="1102" cy="668" r="2" fill="#3B71F7"/>
<circle cx="1255" cy="668" r="2" fill="#3B71F7"/>
<circle cx="1408" cy="668" r="2" fill="#3B71F7"/>
<circle cx="1102" cy="772" r="2" fill="#3B71F7"/>
<circle cx="1255" cy="772" r="2" fill="#3B71F7"/>
<circle cx="1408" cy="772" r="2" fill="#3B71F7"/>
<circle cx="1102" cy="876" r="2" fill="#3B71F7"/>
<circle cx="1255" cy="876" r="2" fill="#3B71F7"/>
<circle cx="1408" cy="876" r="2" fill="#3B71F7"/>
<circle cx="1102" cy="980" r="2" fill="#3B71F7"/>
<circle cx="1255" cy="980" r="2" fill="#3B71F7"/>
<circle cx="1408" cy="980" r="2" fill="#3B71F7"/>
</g>
</svg>
