<svg width="1046" height="288" viewBox="0 0 1046 288" fill="none" xmlns="http://www.w3.org/2000/svg">
<path d="M1247 129.567V430.243C1182 467.097 1132.51 509.968 1098.5 558.857C1066 605.868 1050.89 654.76 1053.16 705.531H1003.28V672.814C1003.28 660.023 1005.16 649.115 1008.93 640.09L1018.02 615.835L1028.22 592.144L1061.08 536.863C1073.94 516.549 1087.54 498.873 1101.9 483.834C1109.45 475.559 1123.06 464.842 1142.7 451.681L1184.65 420.654L1197.13 402.039L1201.66 382.29C1203.17 358.221 1200.52 326.443 1193.72 286.956L1159.71 135.777C1146.86 75.2289 1139.31 24.458 1137.04 -16.5361H1235.67C1234.91 13.1745 1235.29 37.6189 1236.8 56.797C1238.31 83.499 1241.71 107.756 1247 129.567ZM1247 487.221V635.013C1242.46 645.171 1239.06 656.83 1236.8 669.99L1233.4 705.531H1138.17L1137.04 643.476C1137.04 618.656 1139.69 598.162 1144.98 581.992C1149.52 567.325 1163.49 550.965 1186.91 532.913L1247 487.221ZM945.468 705.531H892.187L897.846 645.166L911.456 584.808C921.284 551.338 930.353 525.389 938.662 506.962C951.509 478.753 967.76 453.931 987.416 432.495L1023.69 389.063L1046.36 343.371L1054.29 307.267C1055.05 293.726 1051.65 282.067 1044.09 272.291L996.47 203.47L948.878 134.65C930.73 105.315 917.502 80.4928 909.193 60.1834C897.856 32.7305 892.187 7.15728 892.187 -16.5361H945.468C946.222 24.458 957.937 65.4497 980.611 106.439C1003.28 146.307 1035.77 184.292 1078.09 220.396L1048.63 140.853L1021.41 61.3099L1008.93 22.9537L1002.16 -16.5361H1053.18L1056.57 16.1807L1064.51 48.9048L1100.78 166.241L1135.93 284.14C1145.74 323.252 1146.5 360.859 1138.19 396.963L1129.12 420.646C1123.83 429.302 1116.27 436.45 1106.46 442.092L1079.25 456.194C1068.67 461.835 1060.73 467.099 1055.44 471.985C1039.57 485.151 1025.6 503.956 1013.51 528.4L978.347 586.505C964.747 603.425 955.678 622.981 951.141 645.173C947.369 660.216 945.482 680.335 945.482 705.531H945.468ZM852.531 705.531H732.33C711.92 657.768 703.61 612.451 707.402 569.58C711.175 545.886 719.861 526.143 733.462 510.349L776.557 456.194C790.148 435.884 798.457 416.894 801.485 399.223C804.503 386.057 802.617 373.269 795.826 360.859C789.016 348.069 777.674 336.41 761.8 325.882C739.135 310.839 711.18 295.608 677.932 280.19L664.322 298.242L651.843 317.42C629.179 350.139 605.373 378.908 580.425 403.728C550.196 433.814 516.194 459.953 478.42 482.145C464.055 493.048 451.581 505.833 440.999 520.501C433.444 531.784 426.266 545.699 419.466 562.244C402.847 603.613 394.537 651.376 394.537 705.531H300.455L304.982 616.962C308.754 584.623 316.686 555.102 328.778 528.4C345.416 493.048 368.845 465.593 399.065 446.034L433.076 427.983L467.087 409.931C491.271 395.644 510.163 379.096 523.764 360.289C536.61 342.617 543.792 324.003 545.311 304.444C546.82 279.624 542.66 249.538 532.832 214.186L505.626 125.061C492.78 71.6571 488.253 24.458 492.045 -16.5361H638.276C632.231 42.1342 641.299 95.3505 665.483 143.113C688.912 187.486 730.096 226.598 789.035 260.449L861.585 298.242C891.06 313.66 912.22 327.574 925.067 339.984C950.769 363.678 955.305 393.201 938.677 428.553C928.849 450.74 909.957 476.876 882.001 506.962C870.664 519.372 861.972 533.476 855.927 549.275C850.635 561.31 846.858 575.975 844.594 593.271C840.812 628.248 843.453 665.668 852.517 705.531H852.531ZM638.276 705.531H492.03V629.374C495.048 600.795 503.358 575.787 516.958 554.351C558.525 493.423 607.651 438.515 664.336 389.626L690.411 367.625L721.013 347.32C733.104 369.883 727.813 397.711 705.139 430.806C650.726 512.414 628.429 603.989 638.247 705.531H638.276ZM213.163 705.531H56.7302L60.1255 663.788L66.9307 622.038L104.337 459.017L139.481 295.989C150.818 238.074 141.749 185.611 112.274 138.6C95.646 153.267 81.2859 171.319 69.1943 192.755L39.7245 249.17C35.1877 257.445 32.542 267.599 31.7875 279.634L32.9193 310.091L24.9823 390.197L-1.09215 465.79C-15.4474 500.757 -24.5113 525.953 -28.2839 541.376C-32.0565 554.537 -33.5655 569.955 -32.811 587.631L-29.4157 633.887L-23.7568 669.99C-21.4835 683.532 -18.0785 695.378 -13.5417 705.531H-120.118V570.143L-121.249 526.704C-161.297 558.296 -188.881 593.461 -204 632.197V484.968C-147.314 434.568 -111.417 380.035 -96.3068 321.369C-84.2151 277.371 -83.8379 221.147 -95.175 152.695L-111.049 68.0901C-116.331 34.9906 -119.354 6.78181 -120.118 -16.5361H-13.5563L6.8448 65.2596L22.7188 147.055C34.8104 135.396 43.5019 120.919 48.7932 103.623L57.862 58.4938L58.9937 21.2568L56.7302 -16.5361H214.309C215.054 -2.24403 218.449 14.4911 224.495 33.6692L241.501 82.748L265.297 162.854C271.352 192.565 272.112 219.454 267.575 243.523C262.284 264.208 252.46 287.524 238.105 313.47L195.025 381.164C175.378 413.508 164.041 448.482 161.014 486.087C160.259 504.139 163.282 524.26 170.082 546.452L192.761 605.683L202.962 588.195L268.707 453.37C291.381 403.731 308.764 358.414 320.856 317.42C326.902 298.242 329.924 276.43 329.924 251.986L325.383 185.982L309.523 85.0081C302.723 44.014 299.7 10.1659 300.455 -16.5361H394.537C393.783 26.7108 403.229 74.0977 422.876 125.624L446.672 188.805C455.745 213.25 460.282 234.31 460.282 251.986C460.282 270.413 455.373 288.465 445.555 306.141C436.481 323.812 422.876 340.357 404.738 355.776C360.144 400.905 322.36 450.174 291.386 503.583C264.175 550.214 241.123 601.733 222.231 658.141C215.431 676.193 212.408 691.989 213.163 705.531ZM-204 429.679V126.188L-192.668 157.778L-182.467 189.932L-148.456 290.905L-145.046 302.191L-141.651 319.109C-134.096 358.226 -154.879 395.083 -204 429.679ZM733.491 -16.5361H852.502C848.729 18.4408 849.489 47.2103 854.78 69.7725L867.259 102.489L885.396 135.213L937.531 233.934L986.284 332.648L994.207 351.833L996.47 371.011L962.473 324.756C948.863 307.831 934.126 292.975 918.261 280.19L858.19 232.245L795.826 184.855C784.489 175.454 775.42 164.358 768.62 151.568C763.328 142.542 758.797 130.696 755.024 116.028C742.932 73.1566 735.75 28.9685 733.477 -16.5361" fill="url(#paint0_linear_278_3294)"/>
<defs>
<linearGradient id="paint0_linear_278_3294" x1="521.5" y1="-16.5361" x2="521.5" y2="705.531" gradientUnits="userSpaceOnUse">
<stop stop-color="#F5F7FF"/>
<stop offset="1" stop-color="#F5F7FF" stop-opacity="0"/>
</linearGradient>
</defs>
</svg>
